<?xml version="1.0" encoding="UTF-8"?>
<svg width="24px" height="24px" viewBox="0 0 24 24" version="1.1" xmlns="http://www.w3.org/2000/svg" xmlns:xlink="http://www.w3.org/1999/xlink">
    <title>assets/icons/imdb</title>
    <g id="assets/icons/imdb" stroke="none" stroke-width="1" fill="none" fill-rule="evenodd">
        <g id="imdb" fill="#000000" fill-rule="nonzero">
            <path d="M14.31,9.588 L14.31,9.593 C14.233,9.545 14.083,9.523 13.89,9.523 L13.89,14.338 C14.16,14.338 14.33,14.278 14.39,14.173 C14.452,14.069 14.485,13.768 14.485,13.288 L14.485,10.422 C14.485,10.092 14.481,9.882 14.452,9.792 C14.43,9.696 14.385,9.629 14.312,9.588 L14.31,9.588 Z M22.416,0 L1.62,0 C0.742,0.06 0.06,0.744 0,1.596 L0,22.38 C0.06,23.254 0.712,23.922 1.555,23.997 C1.57,24 1.585,24 1.6,24 L22.445,24 C23.325,23.912 23.995,23.174 24,22.29 L24,1.71 C24,0.82 23.305,0.07 22.416,0 Z M4.792,15.626 L2.887,15.626 L2.887,8.26 L4.792,8.26 L4.792,15.626 Z M11.332,15.624 L9.67,15.624 L9.67,10.654 L9,15.623 L7.812,15.623 L7.114,10.763 L7.107,15.623 L5.44,15.623 L5.44,8.26 L7.908,8.26 C7.991,8.783 8.068,9.308 8.138,9.834 L8.408,11.704 L8.85,8.26 L11.333,8.26 L11.333,15.624 L11.332,15.624 Z M16.309,13.444 C16.309,14.099 16.265,14.538 16.205,14.764 C16.143,14.984 16.035,15.164 15.879,15.284 C15.729,15.414 15.539,15.502 15.309,15.55 C15.086,15.595 14.739,15.625 14.289,15.625 L14.285,15.623 L11.98,15.623 L11.98,8.26 L13.406,8.26 C14.32,8.26 14.856,8.307 15.176,8.388 C15.501,8.478 15.751,8.613 15.921,8.808 C16.086,8.988 16.194,9.212 16.234,9.453 C16.284,9.688 16.31,10.158 16.31,10.855 L16.31,13.443 L16.309,13.444 Z M21.253,13.919 C21.253,14.369 21.208,14.683 21.163,14.909 C21.103,15.133 20.968,15.313 20.758,15.477 C20.532,15.643 20.278,15.717 19.978,15.717 C19.758,15.717 19.478,15.657 19.298,15.581 C19.108,15.487 18.94,15.344 18.783,15.154 L18.667,15.624 L16.95,15.624 L16.95,8.26 L16.93,8.257 L18.73,8.257 L18.73,10.657 C18.88,10.482 19.045,10.347 19.24,10.257 C19.436,10.174 19.706,10.13 19.93,10.13 C20.156,10.127 20.38,10.166 20.59,10.245 C20.76,10.315 20.91,10.43 21.026,10.575 C21.116,10.7 21.176,10.845 21.206,10.995 C21.236,11.133 21.25,11.425 21.25,11.865 L21.25,13.919 L21.253,13.919 Z M19.08,11.205 C18.96,11.205 18.886,11.245 18.855,11.325 C18.825,11.405 18.795,11.615 18.795,11.949 L18.795,13.895 C18.795,14.219 18.825,14.428 18.855,14.518 C18.895,14.604 18.985,14.658 19.081,14.652 C19.201,14.652 19.353,14.605 19.381,14.512 C19.411,14.415 19.427,14.192 19.427,13.838 L19.457,13.836 L19.457,11.946 C19.457,11.643 19.442,11.438 19.397,11.343 C19.353,11.243 19.202,11.203 19.082,11.203 L19.08,11.205 Z" id="Shape"></path>
        </g>
    </g>
</svg>