<?xml version="1.0" encoding="UTF-8"?>
<svg width="24px" height="24px" viewBox="0 0 24 24" version="1.1" xmlns="http://www.w3.org/2000/svg" xmlns:xlink="http://www.w3.org/1999/xlink">
    <title>assets/icons/youtube</title>
    <g id="assets/icons/youtube" stroke="none" stroke-width="1" fill="none" fill-rule="evenodd">
        <g id="youtube" transform="translate(0.000000, 4.000000)" fill="#000000" fill-rule="nonzero">
            <path d="M23.498,2.641 C23.2220635,1.60160344 22.4135596,0.78776534 21.376,0.505 C19.505,0 12,0 12,0 C12,0 4.495,0 2.623,0.505 C1.5859324,0.788256756 0.777941373,1.60196201 0.502,2.641 C0,4.525 0,8.455 0,8.455 C0,8.455 0,12.385 0.502,14.269 C0.777936456,15.3083966 1.58644041,16.1222347 2.624,16.405 C4.495,16.91 12,16.91 12,16.91 C12,16.91 19.505,16.91 21.377,16.405 C22.4146666,16.1224185 23.2232481,15.3085024 23.499,14.269 C24,12.385 24,8.455 24,8.455 C24,8.455 24,4.525 23.498,2.641 Z M9.545,12.023 L9.545,4.887 L15.818,8.455 L9.545,12.023 Z" id="Shape"></path>
        </g>
    </g>
</svg>